<svg xmlns="http://www.w3.org/2000/svg" viewBox="0 0 1200 630"><defs><filter id="s"><feDropShadow dx="0" dy="12" stdDeviation="16" flood-color="#18324a" flood-opacity=".12"/></filter></defs><rect width="1200" height="630" fill="#f8f6f1"/><text x="78" y="92" font-family="Arial,'PingFang SC',sans-serif" font-size="42" font-weight="700" fill="#17324d">把一套好试卷，变成自己的内容资产</text><text x="80" y="132" font-family="Arial,'PingFang SC',sans-serif" font-size="20" fill="#6b7c8f">题目是结果，筛选和组织才是教师的长期积累</text><rect x="90" y="190" width="300" height="330" rx="16" fill="#fff" filter="url(#s)"/><text x="130" y="240" font-family="Arial,'PingFang SC',sans-serif" font-size="22" font-weight="700" fill="#17324d">散落的文件</text><g fill="#f3d7b7"><rect x="130" y="280" width="220" height="42" rx="8"/><rect x="150" y="340" width="200" height="42" rx="8"/><rect x="120" y="400" width="230" height="42" rx="8"/></g><text x="154" y="308" font-family="Arial,'PingFang SC',sans-serif" font-size="17" fill="#8d5d38">期中卷最终版.pdf</text><text x="174" y="368" font-family="Arial,'PingFang SC',sans-serif" font-size="17" fill="#8d5d38">八年级复习.docx</text><text x="144" y="428" font-family="Arial,'PingFang SC',sans-serif" font-size="17" fill="#8d5d38">题目整理（新）.pdf</text><path d="M445 355h105" stroke="#e28b3f" stroke-width="8" stroke-linecap="round"/><path d="m535 325 35 30-35 30" fill="none" stroke="#e28b3f" stroke-width="8" stroke-linecap="round" stroke-linejoin="round"/><rect x="625" y="190" width="480" height="330" rx="16" fill="#17324d" filter="url(#s)"/><text x="670" y="240" font-family="Arial,'PingFang SC',sans-serif" font-size="22" font-weight="700" fill="#fff">清晰的试卷合集</text><g fill="#294b65"><rect x="670" y="275" width="390" height="54" rx="10"/><rect x="670" y="350" width="390" height="54" rx="10"/><rect x="670" y="425" width="390" height="54" rx="10"/></g><circle cx="700" cy="302" r="10" fill="#83c3b5"/><circle cx="700" cy="377" r="10" fill="#f2a65a"/><circle cx="700" cy="452" r="10" fill="#d9c8f0"/><text x="730" y="309" font-family="Arial,'PingFang SC',sans-serif" font-size="18" fill="#fff">八年级数学｜一次函数｜单元检测</text><text x="730" y="384" font-family="Arial,'PingFang SC',sans-serif" font-size="18" fill="#fff">七年级语文｜阶段复习｜基础巩固</text><text x="730" y="459" font-family="Arial,'PingFang SC',sans-serif" font-size="18" fill="#fff">九年级物理｜综合练习｜含解析</text></svg>
